# Blender 4.0.2
# www.blender.org
o 3d_arrow
v 0.000000 5.500000 2.000000
v 0.000000 0.000000 1.000000
v -0.390181 5.500000 1.961571
v -0.195090 0.000000 0.980785
v -0.765367 5.500000 1.847759
v -1.111140 5.500000 1.662939
v -1.414214 5.500000 1.414214
v -0.382683 0.000000 0.923880
v -1.662939 5.500000 1.111140
v -0.555570 0.000000 0.831470
v -1.847759 5.500000 0.765367
v -1.961571 5.500000 0.390181
v -2.000000 5.500000 0.000000
v -0.707107 0.000000 0.707107
v -1.961571 5.500000 -0.390181
v -1.847759 5.500000 -0.765367
v -0.831470 0.000000 0.555570
v -1.662939 5.500000 -1.111140
v -1.414214 5.500000 -1.414214
v -0.923880 0.000000 0.382683
v -1.111140 5.500000 -1.662939
v -0.765367 5.500000 -1.847759
v -0.980785 0.000000 0.195090
v -0.390181 5.500000 -1.961571
v 0.000000 5.500000 -2.000000
v -1.000000 0.000000 0.000000
v 0.390181 5.500000 -1.961571
v 0.765367 5.500000 -1.847759
v -0.980785 0.000000 -0.195090
v 1.111140 5.500000 -1.662939
v -0.923880 0.000000 -0.382683
v 1.414214 5.500000 -1.414214
v 1.662939 5.500000 -1.111140
v 1.847759 5.500000 -0.765367
v -0.831470 0.000000 -0.555570
v 1.961571 5.500000 -0.390181
v 2.000000 5.500000 0.000000
v -0.707107 0.000000 -0.707107
v 1.961571 5.500000 0.390181
v 1.847759 5.500000 0.765367
v -0.555570 0.000000 -0.831470
v 1.662939 5.500000 1.111140
v 1.414214 5.500000 1.414214
v -0.382683 0.000000 -0.923880
v 1.111140 5.500000 1.662939
v 0.765367 5.500000 1.847759
v -0.195090 0.000000 -0.980785
v 0.390181 5.500000 1.961571
v 0.000000 0.000000 -1.000000
v 0.000000 7.500000 0.000000
v 0.195090 0.000000 -0.980785
v 0.382683 0.000000 -0.923880
v 0.555570 0.000000 -0.831470
v 0.707107 0.000000 -0.707107
v 0.831470 0.000000 -0.555570
v 0.923880 0.000000 -0.382683
v 0.980785 0.000000 -0.195090
v 1.000000 0.000000 0.000000
v 0.980785 0.000000 0.195090
v 0.923880 0.000000 0.382683
v 0.831470 0.000000 0.555570
v 0.707107 0.000000 0.707107
v 0.555570 0.000000 0.831470
v 0.382683 0.000000 0.923880
v 0.195090 0.000000 0.980785
v 0.195090 5.500000 0.980785
v 0.000000 5.500000 1.000000
v -0.195090 5.500000 0.980785
v -0.195090 5.500000 -0.980785
v -0.382683 5.500000 -0.923880
v -0.555570 5.500000 0.831470
v -0.555570 5.500000 -0.831470
v -0.382683 5.500000 0.923880
v -0.831470 5.500000 -0.555570
v -0.831470 5.500000 0.555570
v -1.000000 5.500000 0.000000
v -0.980785 5.500000 0.195090
v -0.980785 5.500000 -0.195090
v -0.923880 5.500000 0.382683
v -0.923880 5.500000 -0.382683
v -0.707107 5.500000 0.707107
v -0.707107 5.500000 -0.707107
v 1.000000 5.500000 0.000000
v 0.923880 5.500000 -0.382683
v 0.980785 5.500000 -0.195090
v 0.980785 5.500000 0.195090
v 0.831470 5.500000 -0.555570
v 0.831470 5.500000 0.555570
v 0.707107 5.500000 -0.707107
v 0.923880 5.500000 0.382683
v 0.382683 5.500000 0.923880
v 0.555570 5.500000 -0.831470
v 0.555570 5.500000 0.831470
v 0.000000 5.500000 -1.000000
v 0.195090 5.500000 -0.980785
v 0.382683 5.500000 -0.923880
v 0.707107 5.500000 0.707107
vn -0.0695 0.7054 0.7054
vn -0.2058 0.7054 0.6783
vn -0.3341 0.7054 0.6251
vn -0.4497 0.7054 0.5479
vn -0.5479 0.7054 0.4497
vn -0.6251 0.7054 0.3341
vn -0.6783 0.7054 0.2058
vn -0.7054 0.7054 0.0695
vn -0.7054 0.7054 -0.0695
vn -0.6783 0.7054 -0.2058
vn -0.6251 0.7054 -0.3341
vn -0.5479 0.7054 -0.4497
vn -0.4497 0.7054 -0.5479
vn -0.3341 0.7054 -0.6251
vn -0.2058 0.7054 -0.6783
vn -0.0695 0.7054 -0.7054
vn 0.0695 0.7054 -0.7054
vn 0.2058 0.7054 -0.6783
vn 0.3341 0.7054 -0.6251
vn 0.4497 0.7054 -0.5479
vn 0.5479 0.7054 -0.4497
vn 0.6251 0.7054 -0.3341
vn 0.6783 0.7054 -0.2058
vn 0.7054 0.7054 -0.0695
vn 0.7054 0.7054 0.0695
vn 0.6783 0.7054 0.2058
vn 0.6251 0.7054 0.3341
vn 0.5479 0.7054 0.4497
vn 0.4497 0.7054 0.5479
vn 0.3341 0.7054 0.6251
vn -0.0000 -1.0000 -0.0000
vn 0.2058 0.7054 0.6783
vn 0.0695 0.7054 0.7054
vn -0.0980 -0.0000 0.9952
vn -0.2903 -0.0000 0.9569
vn -0.4714 -0.0000 0.8819
vn -0.6344 -0.0000 0.7730
vn -0.7730 -0.0000 0.6344
vn -0.8819 -0.0000 0.4714
vn -0.9569 -0.0000 0.2903
vn -0.9952 -0.0000 0.0980
vn -0.9952 -0.0000 -0.0980
vn -0.9569 -0.0000 -0.2903
vn -0.8819 -0.0000 -0.4714
vn -0.7730 -0.0000 -0.6344
vn -0.6344 -0.0000 -0.7730
vn -0.4714 -0.0000 -0.8819
vn -0.2903 -0.0000 -0.9569
vn -0.0980 -0.0000 -0.9952
vn 0.0980 -0.0000 -0.9952
vn 0.2903 -0.0000 -0.9569
vn 0.4714 -0.0000 -0.8819
vn 0.6344 -0.0000 -0.7730
vn 0.7730 -0.0000 -0.6344
vn 0.8819 -0.0000 -0.4714
vn 0.9569 -0.0000 -0.2903
vn 0.9952 -0.0000 -0.0980
vn 0.9952 -0.0000 0.0980
vn 0.9569 -0.0000 0.2903
vn 0.8819 -0.0000 0.4714
vn 0.7730 -0.0000 0.6344
vn 0.6344 -0.0000 0.7730
vn 0.4714 -0.0000 0.8819
vn 0.2903 -0.0000 0.9569
vn 0.0980 -0.0000 0.9952
s 0
f 1//1 50//1 3//1
f 3//2 50//2 5//2
f 5//3 50//3 6//3
f 6//4 50//4 7//4
f 7//5 50//5 9//5
f 9//6 50//6 11//6
f 11//7 50//7 12//7
f 12//8 50//8 13//8
f 50//9 15//9 13//9
f 50//10 16//10 15//10
f 50//11 18//11 16//11
f 50//12 19//12 18//12
f 50//13 21//13 19//13
f 50//14 22//14 21//14
f 50//15 24//15 22//15
f 50//16 25//16 24//16
f 27//17 25//17 50//17
f 28//18 27//18 50//18
f 30//19 28//19 50//19
f 32//20 30//20 50//20
f 33//21 32//21 50//21
f 34//22 33//22 50//22
f 36//23 34//23 50//23
f 37//24 36//24 50//24
f 39//25 37//25 50//25
f 40//26 39//26 50//26
f 42//27 40//27 50//27
f 43//28 42//28 50//28
f 45//29 43//29 50//29
f 46//30 45//30 50//30
f 71//31 73//31 5//31
f 84//31 87//31 34//31
f 48//32 46//32 50//32
f 48//33 50//33 1//33
f 2//34 68//34 4//34
f 4//35 73//35 8//35
f 8//36 71//36 10//36
f 10//37 81//37 14//37
f 17//38 81//38 75//38
f 20//39 75//39 79//39
f 23//40 79//40 77//40
f 26//41 77//41 76//41
f 29//42 76//42 78//42
f 31//43 78//43 80//43
f 35//44 80//44 74//44
f 38//45 74//45 82//45
f 41//46 82//46 72//46
f 44//47 72//47 70//47
f 47//48 70//48 69//48
f 49//49 69//49 94//49
f 51//50 94//50 95//50
f 52//51 95//51 96//51
f 53//52 96//52 92//52
f 54//53 92//53 89//53
f 54//54 87//54 55//54
f 55//55 84//55 56//55
f 56//56 85//56 57//56
f 57//57 83//57 58//57
f 58//58 86//58 59//58
f 59//59 90//59 60//59
f 60//60 88//60 61//60
f 61//61 97//61 62//61
f 62//62 93//62 63//62
f 63//63 91//63 64//63
f 64//64 66//64 65//64
f 65//65 67//65 2//65
f 44//31 56//31 64//31
f 66//31 48//31 1//31
f 1//31 3//31 67//31
f 3//31 5//31 68//31
f 1//31 67//31 66//31
f 5//31 6//31 71//31
f 6//31 7//31 81//31
f 81//31 7//31 75//31
f 7//31 9//31 75//31
f 9//31 11//31 79//31
f 11//31 12//31 77//31
f 11//31 77//31 79//31
f 9//31 79//31 75//31
f 67//31 3//31 68//31
f 73//31 68//31 5//31
f 6//31 81//31 71//31
f 76//31 77//31 12//31
f 12//31 13//31 76//31
f 13//31 15//31 78//31
f 78//31 15//31 80//31
f 15//31 16//31 80//31
f 16//31 18//31 80//31
f 18//31 19//31 74//31
f 19//31 21//31 82//31
f 18//31 74//31 80//31
f 21//31 22//31 72//31
f 22//31 24//31 70//31
f 21//31 72//31 82//31
f 24//31 25//31 94//31
f 25//31 27//31 95//31
f 95//31 27//31 96//31
f 27//31 28//31 96//31
f 28//31 30//31 92//31
f 30//31 32//31 92//31
f 32//31 33//31 89//31
f 92//31 32//31 89//31
f 33//31 34//31 87//31
f 34//31 36//31 84//31
f 33//31 87//31 89//31
f 36//31 37//31 83//31
f 37//31 39//31 86//31
f 86//31 39//31 90//31
f 39//31 40//31 90//31
f 40//31 42//31 88//31
f 42//31 43//31 88//31
f 43//31 45//31 97//31
f 88//31 43//31 97//31
f 45//31 46//31 93//31
f 46//31 48//31 91//31
f 45//31 93//31 97//31
f 48//31 66//31 91//31
f 91//31 93//31 46//31
f 40//31 88//31 90//31
f 28//31 92//31 96//31
f 78//31 76//31 13//31
f 74//31 19//31 82//31
f 72//31 22//31 70//31
f 37//31 86//31 83//31
f 69//31 70//31 24//31
f 36//31 83//31 85//31
f 36//31 85//31 84//31
f 94//31 69//31 24//31
f 95//31 94//31 25//31
f 2//34 67//34 68//34
f 4//35 68//35 73//35
f 8//36 73//36 71//36
f 10//37 71//37 81//37
f 17//38 14//38 81//38
f 20//39 17//39 75//39
f 23//40 20//40 79//40
f 26//41 23//41 77//41
f 29//42 26//42 76//42
f 31//43 29//43 78//43
f 35//44 31//44 80//44
f 38//45 35//45 74//45
f 41//46 38//46 82//46
f 44//47 41//47 72//47
f 47//48 44//48 70//48
f 49//49 47//49 69//49
f 51//50 49//50 94//50
f 52//51 51//51 95//51
f 53//52 52//52 96//52
f 54//53 53//53 92//53
f 54//54 89//54 87//54
f 55//55 87//55 84//55
f 56//56 84//56 85//56
f 57//57 85//57 83//57
f 58//58 83//58 86//58
f 59//59 86//59 90//59
f 60//60 90//60 88//60
f 61//61 88//61 97//61
f 62//62 97//62 93//62
f 63//63 93//63 91//63
f 64//64 91//64 66//64
f 65//65 66//65 67//65
f 64//31 65//31 2//31
f 2//31 4//31 64//31
f 4//31 8//31 64//31
f 8//31 10//31 14//31
f 14//31 17//31 20//31
f 20//31 23//31 26//31
f 26//31 29//31 20//31
f 29//31 31//31 20//31
f 31//31 35//31 38//31
f 38//31 41//31 44//31
f 44//31 47//31 52//31
f 47//31 49//31 52//31
f 49//31 51//31 52//31
f 52//31 53//31 54//31
f 54//31 55//31 56//31
f 56//31 57//31 60//31
f 57//31 58//31 60//31
f 58//31 59//31 60//31
f 60//31 61//31 62//31
f 62//31 63//31 64//31
f 8//31 14//31 64//31
f 14//31 20//31 64//31
f 31//31 38//31 20//31
f 38//31 44//31 20//31
f 52//31 54//31 44//31
f 54//31 56//31 44//31
f 60//31 62//31 56//31
f 62//31 64//31 56//31
f 64//31 20//31 44//31
